<?xml version="1.0" standalone="no"?><!-- Generator: Gravit.io --><svg xmlns="http://www.w3.org/2000/svg" xmlns:xlink="http://www.w3.org/1999/xlink" style="isolation:isolate" viewBox="0 0 2000 400" width="2000" height="400"><defs><clipPath id="_clipPath_FbjWRk29MkZY3USdXgGKLCrm1x66zB4I"><rect width="2000" height="400"/></clipPath></defs><g clip-path="url(#_clipPath_FbjWRk29MkZY3USdXgGKLCrm1x66zB4I)"><g id="Group"><g id="Group"><path d=" M 130.89 100.702 L 130.89 100.702 L 130.89 100.702 Q 159.162 100.702 183.246 111.435 L 183.246 111.435 L 183.246 111.435 Q 207.33 122.168 224.607 140.23 L 224.607 140.23 L 224.607 140.23 Q 241.885 158.293 251.832 182.115 L 251.832 182.115 L 251.832 182.115 Q 261.78 205.937 261.78 231.592 L 261.78 231.592 L 261.78 244.157 L 130.89 244.157 L 130.89 218.503 L 235.602 218.503 L 235.602 218.503 Q 235.602 206.461 228.534 190.492 L 228.534 190.492 L 228.534 190.492 Q 221.466 174.524 207.853 160.387 L 207.853 160.387 L 207.853 160.387 Q 194.241 146.251 174.869 136.565 L 174.869 136.565 L 174.869 136.565 Q 155.497 126.88 130.89 126.88 L 130.89 126.88 L 130.89 126.88 Q 109.948 126.88 91.099 134.995 L 91.099 134.995 L 91.099 134.995 Q 72.251 143.11 57.853 157.246 L 57.853 157.246 L 57.853 157.246 Q 43.455 171.382 34.817 190.492 L 34.817 190.492 L 34.817 190.492 Q 26.178 209.602 26.178 231.592 L 26.178 231.592 L 26.178 231.592 Q 26.178 258.293 36.649 278.188 L 36.649 278.188 L 36.649 278.188 Q 47.12 298.084 62.827 310.911 L 62.827 310.911 L 62.827 310.911 Q 78.534 323.738 96.859 330.021 L 96.859 330.021 L 96.859 330.021 Q 115.183 336.304 130.89 336.304 L 130.89 336.304 L 130.89 362.482 L 130.89 362.482 Q 100 362.482 75.916 351.225 L 75.916 351.225 L 75.916 351.225 Q 51.832 339.969 34.817 321.644 L 34.817 321.644 L 34.817 321.644 Q 17.801 303.319 8.901 279.759 L 8.901 279.759 L 8.901 279.759 Q 0 256.199 0 231.592 L 0 231.592 L 0 231.592 Q 0 205.937 9.948 182.115 L 9.948 182.115 L 9.948 182.115 Q 19.895 158.293 37.435 140.23 L 37.435 140.23 L 37.435 140.23 Q 54.974 122.168 78.796 111.435 L 78.796 111.435 L 78.796 111.435 Q 102.618 100.702 130.89 100.702 Z  M 326.702 34.733 L 326.702 -26 L 326.702 362.482 L 301.047 362.482 L 301.047 34.733 L 326.702 34.733 Z  M 366.492 235.257 L 366.492 103.843 L 394.241 103.843 L 394.241 234.962 L 394.241 234.962 Q 394.241 255.858 401.814 274.402 L 401.814 274.402 L 401.814 274.402 Q 409.385 292.947 422.963 306.79 L 422.963 306.79 L 422.963 306.79 Q 436.541 320.634 456.126 328.73 L 456.126 328.73 L 456.126 328.73 Q 475.71 336.827 499.732 336.827 L 499.732 336.827 L 499.732 336.827 Q 520.099 336.827 538.639 328.784 L 538.639 328.784 L 538.639 328.784 Q 557.178 320.74 570.756 306.894 L 570.756 306.894 L 570.756 306.894 Q 584.334 293.049 592.429 274.474 L 592.429 274.474 L 592.429 274.474 Q 600.524 255.901 600.524 234.964 L 600.524 234.964 L 628.272 234.964 L 628.272 234.964 Q 628.272 260.61 618.566 283.888 L 618.566 283.888 L 618.566 283.888 Q 608.862 307.165 591.55 324.932 L 591.55 324.932 L 591.55 324.932 Q 574.238 342.699 550.63 353.376 L 550.63 353.376 L 550.63 353.376 Q 527.023 364.052 499.743 364.052 L 499.743 364.052 L 499.743 364.052 Q 468.791 364.052 444.134 353.058 L 444.134 353.058 L 444.134 353.058 Q 419.477 342.063 402.165 324 L 402.165 324 L 402.165 324 Q 384.853 305.937 375.673 282.639 L 375.673 282.639 L 375.673 282.639 Q 366.492 259.34 366.492 235.257 L 366.492 235.257 Z  M 695.288 175.047 L 695.288 175.047 L 695.288 175.047 Q 695.288 192.848 707.33 202.534 L 707.33 202.534 L 707.33 202.534 Q 719.372 212.22 736.126 216.67 L 736.126 216.67 L 736.126 216.67 Q 752.88 221.12 770.419 221.906 L 770.419 221.906 L 770.419 221.906 Q 787.958 222.691 798.429 222.691 L 798.429 222.691 L 798.429 222.691 Q 812.565 222.691 834.555 224.785 L 834.555 224.785 L 834.555 224.785 Q 856.545 226.88 877.487 234.209 L 877.487 234.209 L 877.487 234.209 Q 898.429 241.539 913.351 255.675 L 913.351 255.675 L 913.351 255.675 Q 928.272 269.812 928.272 294.419 L 928.272 294.419 L 928.272 294.419 Q 928.272 319.55 913.351 333.948 L 913.351 333.948 L 913.351 333.948 Q 898.429 348.346 877.487 355.675 L 877.487 355.675 L 877.487 355.675 Q 856.545 363.005 834.555 365.099 L 834.555 365.099 L 834.555 365.099 Q 812.565 367.194 798.429 367.194 L 798.429 367.194 L 798.429 341.016 L 798.429 341.016 Q 803.665 341.016 813.613 340.754 L 813.613 340.754 L 813.613 340.754 Q 823.56 340.492 835.079 339.183 L 835.079 339.183 L 835.079 339.183 Q 846.597 337.874 858.377 334.995 L 858.377 334.995 L 858.377 334.995 Q 870.157 332.115 879.843 326.88 L 879.843 326.88 L 879.843 326.88 Q 889.529 321.644 895.812 313.529 L 895.812 313.529 L 895.812 313.529 Q 902.094 305.414 902.094 293.372 L 902.094 293.372 L 902.094 293.372 Q 902.094 276.618 889.529 267.717 L 889.529 267.717 L 889.529 267.717 Q 876.963 258.817 859.948 254.628 L 859.948 254.628 L 859.948 254.628 Q 842.932 250.44 825.654 249.654 L 825.654 249.654 L 825.654 249.654 Q 808.377 248.869 798.429 248.869 L 798.429 248.869 L 798.429 248.869 Q 783.246 248.869 760.733 246.775 L 760.733 246.775 L 760.733 246.775 Q 738.22 244.681 717.277 237.351 L 717.277 237.351 L 717.277 237.351 Q 696.335 230.021 681.414 215.623 L 681.414 215.623 L 681.414 215.623 Q 666.492 201.225 666.492 176.618 L 666.492 176.618 L 666.492 176.618 Q 666.492 152.534 681.414 138.136 L 681.414 138.136 L 681.414 138.136 Q 696.335 123.738 717.277 116.67 L 717.277 116.67 L 717.277 116.67 Q 738.22 109.602 760.995 107.508 L 760.995 107.508 L 760.995 107.508 Q 783.77 105.414 799.476 105.414 L 799.476 105.414 L 928.272 105.414 L 928.272 131.592 L 796.335 131.592 L 796.335 131.592 Q 785.34 131.592 768.063 132.377 L 768.063 132.377 L 768.063 132.377 Q 750.785 133.162 734.555 137.351 L 734.555 137.351 L 734.555 137.351 Q 718.325 141.539 706.806 150.44 L 706.806 150.44 L 706.806 150.44 Q 695.288 159.34 695.288 175.047 Z  M 1109.424 100.702 L 1109.424 100.702 L 1109.424 100.702 Q 1137.696 100.702 1161.78 111.435 L 1161.78 111.435 L 1161.78 111.435 Q 1185.864 122.168 1203.141 140.23 L 1203.141 140.23 L 1203.141 140.23 Q 1220.419 158.293 1230.366 182.115 L 1230.366 182.115 L 1230.366 182.115 Q 1240.314 205.937 1240.314 231.592 L 1240.314 231.592 L 1240.314 244.157 L 1109.424 244.157 L 1109.424 218.503 L 1214.136 218.503 L 1214.136 218.503 Q 1214.136 206.461 1207.068 190.492 L 1207.068 190.492 L 1207.068 190.492 Q 1200 174.524 1186.387 160.387 L 1186.387 160.387 L 1186.387 160.387 Q 1172.775 146.251 1153.403 136.565 L 1153.403 136.565 L 1153.403 136.565 Q 1134.031 126.88 1109.424 126.88 L 1109.424 126.88 L 1109.424 126.88 Q 1088.482 126.88 1069.634 134.995 L 1069.634 134.995 L 1069.634 134.995 Q 1050.785 143.11 1036.387 157.246 L 1036.387 157.246 L 1036.387 157.246 Q 1021.99 171.382 1013.351 190.492 L 1013.351 190.492 L 1013.351 190.492 Q 1004.712 209.602 1004.712 231.592 L 1004.712 231.592 L 1004.712 231.592 Q 1004.712 258.293 1015.183 278.188 L 1015.183 278.188 L 1015.183 278.188 Q 1025.654 298.084 1041.361 310.911 L 1041.361 310.911 L 1041.361 310.911 Q 1057.068 323.738 1075.393 330.021 L 1075.393 330.021 L 1075.393 330.021 Q 1093.717 336.304 1109.424 336.304 L 1109.424 336.304 L 1109.424 362.482 L 1109.424 362.482 Q 1078.534 362.482 1054.45 351.225 L 1054.45 351.225 L 1054.45 351.225 Q 1030.366 339.969 1013.351 321.644 L 1013.351 321.644 L 1013.351 321.644 Q 996.335 303.319 987.435 279.759 L 987.435 279.759 L 987.435 279.759 Q 978.534 256.199 978.534 231.592 L 978.534 231.592 L 978.534 231.592 Q 978.534 205.937 988.482 182.115 L 988.482 182.115 L 988.482 182.115 Q 998.429 158.293 1015.969 140.23 L 1015.969 140.23 L 1015.969 140.23 Q 1033.508 122.168 1057.33 111.435 L 1057.33 111.435 L 1057.33 111.435 Q 1081.152 100.702 1109.424 100.702 Z  M 1280.105 235.257 L 1280.105 103.843 L 1307.853 103.843 L 1307.853 234.962 L 1307.853 234.962 Q 1307.853 255.858 1315.426 274.402 L 1315.426 274.402 L 1315.426 274.402 Q 1322.998 292.947 1336.576 306.79 L 1336.576 306.79 L 1336.576 306.79 Q 1350.154 320.634 1369.738 328.73 L 1369.738 328.73 L 1369.738 328.73 Q 1389.323 336.827 1413.345 336.827 L 1413.345 336.827 L 1413.345 336.827 Q 1433.712 336.827 1452.251 328.784 L 1452.251 328.784 L 1452.251 328.784 Q 1470.791 320.74 1484.369 306.894 L 1484.369 306.894 L 1484.369 306.894 Q 1497.947 293.049 1506.042 274.474 L 1506.042 274.474 L 1506.042 274.474 Q 1514.136 255.901 1514.136 234.964 L 1514.136 234.964 L 1541.885 234.964 L 1541.885 234.964 Q 1541.885 260.61 1532.179 283.888 L 1532.179 283.888 L 1532.179 283.888 Q 1522.474 307.165 1505.162 324.932 L 1505.162 324.932 L 1505.162 324.932 Q 1487.85 342.699 1464.243 353.376 L 1464.243 353.376 L 1464.243 353.376 Q 1440.636 364.052 1413.356 364.052 L 1413.356 364.052 L 1413.356 364.052 Q 1382.403 364.052 1357.747 353.058 L 1357.747 353.058 L 1357.747 353.058 Q 1333.09 342.063 1315.778 324 L 1315.778 324 L 1315.778 324 Q 1298.466 305.937 1289.286 282.639 L 1289.286 282.639 L 1289.286 282.639 Q 1280.105 259.34 1280.105 235.257 L 1280.105 235.257 Z  M 1514.136 234.964 Q 1514.136 207.508 1522.513 183.948 Q 1530.89 160.387 1545.812 142.848 Q 1560.733 125.309 1580.628 115.099 Q 1602.618 104.89 1625.654 104.89 L 1625.654 104.89 L 1625.654 104.89 Q 1652.356 104.89 1671.466 115.623 L 1671.466 115.623 L 1671.466 115.623 Q 1690.576 126.356 1702.618 138.921 L 1702.618 138.921 L 1702.618 138.921 Q 1716.754 154.105 1726.178 172.953 L 1726.178 172.953 L 1726.178 172.953 Q 1734.555 154.105 1748.168 138.921 L 1748.168 138.921 L 1748.168 138.921 Q 1760.209 126.356 1779.058 115.623 L 1779.058 115.623 L 1779.058 115.623 Q 1797.906 104.89 1826.178 104.89 L 1826.178 104.89 L 1826.178 104.89 Q 1848.168 104.89 1868.063 114.314 L 1868.063 114.314 L 1868.063 114.314 Q 1887.958 123.738 1903.141 140.492 L 1903.141 140.492 L 1903.141 140.492 Q 1918.325 157.246 1927.225 181.33 L 1927.225 181.33 L 1927.225 181.33 Q 1936.126 205.414 1936.126 234.209 L 1936.126 234.209 L 1936.126 366.67 L 1910.471 366.67 L 1910.471 234.209 L 1910.471 234.209 Q 1910.471 207.508 1901.047 187.874 L 1901.047 187.874 L 1901.047 187.874 Q 1891.623 168.241 1878.272 155.675 L 1878.272 155.675 L 1878.272 155.675 Q 1864.921 143.11 1850.524 136.827 L 1850.524 136.827 L 1850.524 136.827 Q 1836.126 130.545 1826.178 130.545 L 1826.178 130.545 L 1826.178 130.545 Q 1806.806 130.545 1790.576 139.445 L 1790.576 139.445 L 1790.576 139.445 Q 1774.346 148.346 1762.827 163.005 L 1762.827 163.005 L 1762.827 163.005 Q 1751.309 177.665 1745.026 196.251 L 1745.026 196.251 L 1745.026 196.251 Q 1738.743 214.838 1738.743 234.209 L 1738.743 234.209 L 1738.743 366.67 L 1713.089 366.67 L 1713.089 234.209 L 1713.089 234.209 Q 1713.089 213.791 1706.806 194.942 L 1706.806 194.942 L 1706.806 194.942 Q 1700.524 176.094 1689.005 161.696 L 1689.005 161.696 L 1689.005 161.696 Q 1677.487 147.298 1661.257 138.921 L 1661.257 138.921 L 1661.257 138.921 Q 1645.026 130.545 1625.654 130.545 L 1625.654 130.545 L 1625.654 130.545 Q 1606.806 130.545 1591.623 138.66 Q 1576.44 146.775 1564.921 160.649 Q 1553.403 174.524 1546.597 193.372 Q 1541.885 212.975 1541.885 234.964 L 1514.136 234.964 Z " fill-rule="evenodd" fill="rgb(0,0,0)"/><rect x="129.843" y="336.304" width="196.859" height="26.178" transform="matrix(1,0,0,1,0,0)" fill="rgb(0,0,0)"/><rect x="301.047" y="34.733" width="1698.953" height="26.178" transform="matrix(1,0,0,1,0,0)" fill="rgb(0,0,0)"/></g></g></g></svg>